<svg xmlns="http://www.w3.org/2000/svg" viewBox="0 0 270.52 77.7"><defs><style>.cls-1{fill:none;stroke:#000;stroke-miterlimit:10;stroke-width:4px;}</style></defs><title>Avantgarde</title><g id="Layer_2" data-name="Layer 2"><g id="Layer_1-2" data-name="Layer 1"><path d="M116.57,55.86h-4.89l-.83-5.59h-5.94l-.84,5.59H99.63l4.93-30.8h7.08Zm-11-9.77h4.67l-2.33-15.57Z"/><path d="M125,50.19l3.69-25.13h4.45l-4.76,30.8h-7.21l-4.75-30.8h4.88Z"/><path d="M150,55.86h-4.88l-.84-5.59H138.3l-.83,5.59H133L138,25.06H145Zm-11-9.77h4.66l-2.33-15.57Z"/><path d="M156.52,33.55V55.86h-4.36V25.06h6.08l5,18.44V25.06h4.31v30.8h-5Z"/><path d="M169.59,25.06h15v4.4h-5.06v26.4h-4.84V29.46h-5.06Z"/><path d="M193.92,38.7h6.78v9.77a8.21,8.21,0,0,1-1.83,5.74,8.26,8.26,0,0,1-10.78,0,8.21,8.21,0,0,1-1.83-5.74v-16a8.23,8.23,0,0,1,1.83-5.74,8.26,8.26,0,0,1,10.78,0,8.23,8.23,0,0,1,1.83,5.74v3h-4.58v-3.3a3.31,3.31,0,0,0-.68-2.36,2.51,2.51,0,0,0-1.83-.68,2.47,2.47,0,0,0-1.82.68,3.26,3.26,0,0,0-.69,2.36V48.78a3.16,3.16,0,0,0,.69,2.33,2.5,2.5,0,0,0,1.82.66,2.54,2.54,0,0,0,1.83-.66,3.21,3.21,0,0,0,.68-2.33V43.1h-2.2Z"/><path d="M219.44,55.86h-4.88l-.84-5.59h-5.94l-.84,5.59H202.5l4.93-30.8h7.08Zm-11-9.77h4.66l-2.33-15.57Z"/><path d="M231.8,55.86c-.06-.2-.11-.39-.17-.57a5.35,5.35,0,0,1-.16-.66,8.11,8.11,0,0,1-.08-1c0-.41,0-.93,0-1.54V47.24a4.81,4.81,0,0,0-.74-3,3,3,0,0,0-2.42-.88h-1.68V55.86h-4.84V25.06H229q3.78,0,5.48,1.76a7.48,7.48,0,0,1,1.69,5.33v2.42c0,3.16-1.06,5.25-3.17,6.24a4.34,4.34,0,0,1,2.53,2.45,10.91,10.91,0,0,1,.68,4.11v4.75a19.43,19.43,0,0,0,.09,2,6.54,6.54,0,0,0,.44,1.74Zm-5.28-26.4v9.46h1.9a3,3,0,0,0,2.13-.7,3.39,3.39,0,0,0,.77-2.55v-3a4,4,0,0,0-.59-2.42,2.25,2.25,0,0,0-1.87-.75Z"/><path d="M239.37,25.06H247q3.65,0,5.43,1.94a8.08,8.08,0,0,1,1.78,5.67V48.25a8.11,8.11,0,0,1-1.78,5.68q-1.78,1.93-5.43,1.93h-7.66Zm4.84,4.4v22h2.73a2.43,2.43,0,0,0,1.8-.66,3.26,3.26,0,0,0,.66-2.33v-16a3.26,3.26,0,0,0-.66-2.33,2.43,2.43,0,0,0-1.8-.66Z"/><path d="M262.16,38h6.65v4.4h-6.65v9h8.36v4.4h-13.2V25.06h13.2v4.4h-8.36Z"/><polygon class="cls-1" points="75.63 75.7 56.77 75.7 39.72 49.28 22.74 75.7 3.63 75.7 39.75 18.6 75.63 75.7"/><polygon class="cls-1" points="72.45 54.59 51.07 66.87 39.72 49.28 28.43 66.86 6.83 54.93 39.75 3.7 72.45 54.59"/></g></g></svg>